<?xml version="1.0" standalone="no"?><!DOCTYPE svg PUBLIC "-//W3C//DTD SVG 1.1//EN" "http://www.w3.org/Graphics/SVG/1.1/DTD/svg11.dtd"><svg class="icon" viewBox="0 0 1024 1024" version="1.1" xmlns="http://www.w3.org/2000/svg" xmlns:xlink="http://www.w3.org/1999/xlink" width="64" height="64"><path d="M923.98 165.96c-2.35 76.57-18.88 150.18-46.48 221.49-33.02 85.32-81.31 160.41-149 222.45-5.49 5.03-7.21 10.43-6.49 17.52 2.34 22.95 4.22 45.95 6.58 68.9 5.51 53.53-13.23 97.33-56.39 128.42-46.28 33.34-94.43 64.12-142.2 95.35-30.1 19.68-67.1 1.82-70.46-33.88-3.85-41.01-6.87-82.09-9.73-123.18-1.43-20.56-0.87-20.74-20.78-23.37-52.87-6.97-94.23-32.05-122.64-77.6-14.61-23.43-21.86-49.35-24.4-76.58-0.76-8.17-4.05-10.25-11.75-10.68-42.77-2.36-85.53-4.9-128.24-8.12-35.52-2.69-53.54-40.14-34.5-71.41 13.38-21.97 27.62-43.43 41.43-65.14 14.88-23.38 29.65-46.82 44.57-70.17 27.29-42.73 66.64-65.82 117-66.22 28.84-0.23 57.73 4.85 86.55 7.96 5.46 0.59 9.33-0.16 13.1-4.37 66.92-74.8 149.74-125.28 243.5-159.06 53-19.09 107.53-31.55 163.49-37.33 28.2-2.91 56.61-3.98 84.78 1.24 15.35 2.84 16.14 3.47 18.5 18.47 2.36 14.98 4.24 30.04 3.56 45.31zM790.36 354.83c0.8-65.41-53.37-121.67-117.76-122.73-66.89-1.1-124.8 47.52-126.39 123.44-1.34 63.33 56.03 120.68 120.04 121.13 68.19 0.48 123.26-53.59 124.11-121.84zM219.15 631.28c12.66 0.17 19.67 5.76 24.21 18.69 17.79 50.68 50.17 89.13 97.11 115.19 10.36 5.75 21.27 10.41 32.55 14.26 20.28 6.92 24.91 26.67 9.86 41.87-22.28 22.5-44.79 44.74-67.07 67.23-7.36 7.44-15.47 10.95-25.83 7.1-10.52-3.91-15.6-11.71-16.13-22.6-0.34-6.91-0.16-13.84-0.33-20.76-0.3-12.72-0.42-12.82-12.12-8.95-25.03 8.29-50.03 16.66-75.06 24.96-7.38 2.44-14.79 3.46-22-0.63-10.58-5.99-14.58-16.71-10.32-29.9 8.31-25.71 17.04-51.29 25.54-76.94 3.69-11.13 3.46-11.37-8.56-11.56-7.25-0.11-14.52 0.01-21.76-0.34-10.54-0.51-18.06-5.62-21.96-15.6-3.81-9.73-1.38-18.2 5.74-25.37 23.24-23.38 46.59-46.67 69.93-69.97 4.64-4.63 10.16-7.26 16.2-6.68z"></path></svg>
